<svg xmlns="http://www.w3.org/2000/svg" width="317.928" height="3.3" viewBox="0 0 317.928 3.3"><defs><style>.a{fill:#ffed00;}</style></defs><g transform="translate(-52.767 -27.19)"><path class="a" d="M370.7,27.877c0,.11-.144.22-.575.33-.144.055-.574.083-.86.138-1.58.137-3.445.055-5.168.192q-1.292.083-2.583.083h-2.728c-.287,0-.861,0-1.148.027-1.723.138-3.445.165-5.168.165h-2.3c-3.445,0-6.746.027-10.19.055q-2.152,0-4.306.082C334.38,29,333.089,29,331.8,29h-4.163c-1.435,0-2.87,0-4.306-.11-.431-.027-1-.027-1.579-.027h-2.44c-1.578,0-3.158,0-4.593.11-2.009-.11-4.019-.138-6.172-.138h-5.024c-3.445,0-6.89,0-10.335-.027h-2.44c-4.018,0-8.038.027-12.056.055-1.866.165-3.876.11-5.885.137a35.423,35.423,0,0,1-3.588-.137c-1.723.082-3.158.165-4.737.165h-.144C254.289,29,244.242,29,235.056,29c-1.867-.082-3.015-.165-4.02-.165h-2.153c-3.014,0-6.316,0-9.33.028-1,0-2.009.082-3.014.137-.574-.027-1.149-.055-1.579-.082q-1.292-.083-2.584-.083l-1.722.028c-1.867.082-3.876.165-5.885.193-1.722.193-3.876.11-5.6.3-.575.055-1.435.082-2.153.082h-.287c-5.167,0-10.478.028-15.645.028-2.44,0-4.881,0-7.321-.028h-5.31c-1.292.028-2.727.028-4.02.028-3.158,0-6.315-.028-9.473-.028-1.292,0-2.44-.082-3.875-.192h-7.321c-1.148-.055-2.153-.165-3.3-.165a16.375,16.375,0,0,0-2.01.11c-1.579-.028-3.015-.137-4.593-.137h-.718c-.574,0-1.148,0-1.578.027-2.728.22-5.6.165-8.469.192-1.722.028-3.733.028-5.454.11-.861.028-1.579.055-2.44.055h-2.3c-2.009.028-4.019,0-5.885.137a13.819,13.819,0,0,1-1.579.055c-.861,0-1.722-.055-2.583-.11-1.579.11-3.015.192-5.024.33h-6.6c-1.579,0-3.3,0-4.88.137-.717.055-1.722.028-2.584.055H82.192c-.574,0-1.148,0-1.723.055-1.865.165-3.731.165-5.741.193-1.435.027-2.87,0-4.306.11-.431.027-1,.055-1.579.055-4.163.028-8.181.028-12.344.028-.717,0-1.435-.028-2.153-.055-1-.027-1.579-.192-1.579-.357,0-.083.144-.193.574-.275a2.243,2.243,0,0,1,.431-.083c.861-.055,1.865-.055,2.87-.055H57.5c.574,0,1.292,0,1.866-.027a12.773,12.773,0,0,0,2.3-.33c.717-.137,1.578-.3,2.44-.44h5.455c2.153,0,4.162-.028,6.315-.028.862,0,1.866,0,2.727-.055,2.153-.138,4.306-.138,6.458-.138,2.584,0,4.881,0,7.465-.027.574,0,1-.028,1.578-.055,2.01-.138,4.163-.165,6.315-.165h1.292c1.435,0,2.87.027,4.306.027.717,0,1.579,0,2.153-.055,1.723-.137,3.445-.137,5.167-.137,1.578,0,3.3.027,4.88.027.431,0,.718-.027,1.148-.027a4.037,4.037,0,0,1,.575.027c1.722.165,3.444.193,5.31.193,1.148,0,2.3-.028,3.444-.028H132c3.444,0,7.033-.027,10.478-.027,2.153,0,4.163,0,6.316-.137,1,.055,2.153.11,3.158.137h.287l2.3-.11c.717-.028,1.435-.055,2.154-.055h10.19c1.866,0,3.732-.028,5.454-.165.431-.028,1,0,1.579-.028h.574c1.006,0,1.867.083,2.871.083a6.222,6.222,0,0,0,.717-.028c.861-.055,1.723-.055,2.584-.055h1.723c2.87,0,5.884-.055,8.755-.055h2.153c.575,0,1.149.028,1.722.028,1.292,0,2.871-.055,4.163-.137h.43c.287,0,.574,0,1.006.028,1.435.082,2.87.11,4.306.11q2.8,0,5.6-.165c1.435.082,2.583.137,3.876.137h9.76q9.474,0,18.947.055c.861.055,1.722.11,2.726.165.719-.055,1.579-.082,2.584-.165.717,0,1.292-.027,2.009-.027,1.149,0,2.44.027,3.589.11.574.055,1.292.082,1.866.082l2.44-.11c1-.082,2.01-.082,3.158-.082h24.257c.861,0,1.866,0,2.726-.082,1.149-.11,2.44-.082,3.733-.11h.431c1,0,2.009.055,3.014.055h.717c1.292-.055,2.44-.055,3.732-.055h.574c3.733,0,7.465-.165,11.2-.3,1-.055,2.009-.11,3.158-.11.144,0,.431.027.574.027l7.463-.027c.717,0,1.579.027,2.153.082.287.027.717.055,1,.055l1.579-.055h.43l1.723.055c.288,0,.717,0,1-.027,1.435-.165,3.3-.11,4.88-.137,1.722-.027,3.589,0,5.31-.137.288-.028.575-.028,1-.028h1.148c3.158,0,6.172-.027,9.33-.027,2.3,0,4.593,0,6.89.027h1c1.292,0,2.727.137,4.02.137h1c1,0,2.01.027,3.014.055C369.834,27.437,370.7,27.63,370.7,27.877Zm-181.141.907v-.027c0-.055-.286-.11-.574-.11h-1.435a12.037,12.037,0,0,0-1.723.083v.248c.862,0,1.579.027,2.01.027a5.626,5.626,0,0,0,1.435-.137C189.411,28.84,189.555,28.812,189.555,28.785Z" transform="translate(0 0)"/></g></svg>